<?xml version="1.0" encoding="utf-8" standalone="no"?>
<!DOCTYPE svg PUBLIC "-//W3C//DTD SVG 1.1//EN"
  "http://www.w3.org/Graphics/SVG/1.1/DTD/svg11.dtd">
<svg xmlns:xlink="http://www.w3.org/1999/xlink" width="430.865882pt" height="278.41282pt" viewBox="0 0 430.865882 278.41282" xmlns="http://www.w3.org/2000/svg" version="1.1">
 <metadata>
  <rdf:RDF xmlns:dc="http://purl.org/dc/elements/1.1/" xmlns:cc="http://creativecommons.org/ns#" xmlns:rdf="http://www.w3.org/1999/02/22-rdf-syntax-ns#">
   <cc:Work>
    <dc:type rdf:resource="http://purl.org/dc/dcmitype/StillImage"/>
    <dc:date>2026-07-08T19:42:19.294763</dc:date>
    <dc:format>image/svg+xml</dc:format>
    <dc:creator>
     <cc:Agent>
      <dc:title>Matplotlib v3.11.0, https://matplotlib.org/</dc:title>
     </cc:Agent>
    </dc:creator>
   </cc:Work>
  </rdf:RDF>
 </metadata>
 <defs>
  <style type="text/css">*{stroke-linejoin: round; stroke-linecap: butt}</style>
 </defs>
 <g id="figure_1">
  <g id="patch_1">
   <path d="M 0 278.41282 
L 430.865882 278.41282 
L 430.865882 0 
L 0 0 
z
" style="fill: #fcfcfb"/>
  </g>
  <g id="axes_1">
   <g id="patch_2">
    <path d="M 43.802695 244.152 
L 400.922695 244.152 
L 400.922695 5.76 
L 43.802695 5.76 
z
" style="fill: #fcfcfb"/>
   </g>
   <g id="patch_3">
    <path d="M 43.802695 63.552 
L 93.799495 63.552 
L 93.799495 5.76 
L 43.802695 5.76 
z
" clip-path="url(#pfee70ae09b)" style="fill: #0ca30c; opacity: 0.06; stroke: #0ca30c; stroke-linejoin: miter"/>
   </g>
   <g id="matplotlib.axis_1">
    <g id="xtick_1">
     <g id="line2d_1">
      <path d="M 66.597589 244.152 
L 66.597589 5.76 
" clip-path="url(#pfee70ae09b)" style="fill: none; stroke: #e1e0d9; stroke-width: 0.7; stroke-linecap: square"/>
     </g>
     <g id="line2d_2"/>
     <g id="text_1">
      <text style="font-size: 10.5px; font-family: 'DejaVu Sans', 'Segoe UI', 'Arial', sans-serif; text-anchor: middle; fill: #898781" x="66.597589" y="255.629539" transform="rotate(-0 66.597589 255.629539)">0</text>
     </g>
    </g>
    <g id="xtick_2">
     <g id="line2d_3">
      <path d="M 142.580568 244.152 
L 142.580568 5.76 
" clip-path="url(#pfee70ae09b)" style="fill: none; stroke: #e1e0d9; stroke-width: 0.7; stroke-linecap: square"/>
     </g>
     <g id="line2d_4"/>
     <g id="text_2">
      <text style="font-size: 10.5px; font-family: 'DejaVu Sans', 'Segoe UI', 'Arial', sans-serif; text-anchor: middle; fill: #898781" x="142.580568" y="255.629539" transform="rotate(-0 142.580568 255.629539)">2</text>
     </g>
    </g>
    <g id="xtick_3">
     <g id="line2d_5">
      <path d="M 218.563546 244.152 
L 218.563546 5.76 
" clip-path="url(#pfee70ae09b)" style="fill: none; stroke: #e1e0d9; stroke-width: 0.7; stroke-linecap: square"/>
     </g>
     <g id="line2d_6"/>
     <g id="text_3">
      <text style="font-size: 10.5px; font-family: 'DejaVu Sans', 'Segoe UI', 'Arial', sans-serif; text-anchor: middle; fill: #898781" x="218.563546" y="255.629539" transform="rotate(-0 218.563546 255.629539)">4</text>
     </g>
    </g>
    <g id="xtick_4">
     <g id="line2d_7">
      <path d="M 294.546525 244.152 
L 294.546525 5.76 
" clip-path="url(#pfee70ae09b)" style="fill: none; stroke: #e1e0d9; stroke-width: 0.7; stroke-linecap: square"/>
     </g>
     <g id="line2d_8"/>
     <g id="text_4">
      <text style="font-size: 10.5px; font-family: 'DejaVu Sans', 'Segoe UI', 'Arial', sans-serif; text-anchor: middle; fill: #898781" x="294.546525" y="255.629539" transform="rotate(-0 294.546525 255.629539)">6</text>
     </g>
    </g>
    <g id="xtick_5">
     <g id="line2d_9">
      <path d="M 370.529504 244.152 
L 370.529504 5.76 
" clip-path="url(#pfee70ae09b)" style="fill: none; stroke: #e1e0d9; stroke-width: 0.7; stroke-linecap: square"/>
     </g>
     <g id="line2d_10"/>
     <g id="text_5">
      <text style="font-size: 10.5px; font-family: 'DejaVu Sans', 'Segoe UI', 'Arial', sans-serif; text-anchor: middle; fill: #898781" x="370.529504" y="255.629539" transform="rotate(-0 370.529504 255.629539)">8</text>
     </g>
    </g>
    <g id="text_6">
     <text style="font-size: 10.5px; font-family: 'DejaVu Sans', 'Segoe UI', 'Arial', sans-serif; text-anchor: middle; fill: #52514e" x="222.362695" y="270.130359" transform="rotate(-0 222.362695 270.130359)">False-positive rate on benign hard-negatives  (%)  →  worse</text>
    </g>
   </g>
   <g id="matplotlib.axis_2">
    <g id="ytick_1">
     <g id="line2d_11">
      <path d="M 43.802695 244.152 
L 400.922695 244.152 
" clip-path="url(#pfee70ae09b)" style="fill: none; stroke: #e1e0d9; stroke-width: 0.7; stroke-linecap: square"/>
     </g>
     <g id="line2d_12"/>
     <g id="text_7">
      <text style="font-size: 10.5px; font-family: 'DejaVu Sans', 'Segoe UI', 'Arial', sans-serif; text-anchor: end; fill: #898781" x="40.302695" y="248.14077" transform="rotate(-0 40.302695 248.14077)">40</text>
     </g>
    </g>
    <g id="ytick_2">
     <g id="line2d_13">
      <path d="M 43.802695 208.032 
L 400.922695 208.032 
" clip-path="url(#pfee70ae09b)" style="fill: none; stroke: #e1e0d9; stroke-width: 0.7; stroke-linecap: square"/>
     </g>
     <g id="line2d_14"/>
     <g id="text_8">
      <text style="font-size: 10.5px; font-family: 'DejaVu Sans', 'Segoe UI', 'Arial', sans-serif; text-anchor: end; fill: #898781" x="40.302695" y="212.02077" transform="rotate(-0 40.302695 212.02077)">50</text>
     </g>
    </g>
    <g id="ytick_3">
     <g id="line2d_15">
      <path d="M 43.802695 171.912 
L 400.922695 171.912 
" clip-path="url(#pfee70ae09b)" style="fill: none; stroke: #e1e0d9; stroke-width: 0.7; stroke-linecap: square"/>
     </g>
     <g id="line2d_16"/>
     <g id="text_9">
      <text style="font-size: 10.5px; font-family: 'DejaVu Sans', 'Segoe UI', 'Arial', sans-serif; text-anchor: end; fill: #898781" x="40.302695" y="175.90077" transform="rotate(-0 40.302695 175.90077)">60</text>
     </g>
    </g>
    <g id="ytick_4">
     <g id="line2d_17">
      <path d="M 43.802695 135.792 
L 400.922695 135.792 
" clip-path="url(#pfee70ae09b)" style="fill: none; stroke: #e1e0d9; stroke-width: 0.7; stroke-linecap: square"/>
     </g>
     <g id="line2d_18"/>
     <g id="text_10">
      <text style="font-size: 10.5px; font-family: 'DejaVu Sans', 'Segoe UI', 'Arial', sans-serif; text-anchor: end; fill: #898781" x="40.302695" y="139.78077" transform="rotate(-0 40.302695 139.78077)">70</text>
     </g>
    </g>
    <g id="ytick_5">
     <g id="line2d_19">
      <path d="M 43.802695 99.672 
L 400.922695 99.672 
" clip-path="url(#pfee70ae09b)" style="fill: none; stroke: #e1e0d9; stroke-width: 0.7; stroke-linecap: square"/>
     </g>
     <g id="line2d_20"/>
     <g id="text_11">
      <text style="font-size: 10.5px; font-family: 'DejaVu Sans', 'Segoe UI', 'Arial', sans-serif; text-anchor: end; fill: #898781" x="40.302695" y="103.66077" transform="rotate(-0 40.302695 103.66077)">80</text>
     </g>
    </g>
    <g id="ytick_6">
     <g id="line2d_21">
      <path d="M 43.802695 63.552 
L 400.922695 63.552 
" clip-path="url(#pfee70ae09b)" style="fill: none; stroke: #e1e0d9; stroke-width: 0.7; stroke-linecap: square"/>
     </g>
     <g id="line2d_22"/>
     <g id="text_12">
      <text style="font-size: 10.5px; font-family: 'DejaVu Sans', 'Segoe UI', 'Arial', sans-serif; text-anchor: end; fill: #898781" x="40.302695" y="67.54077" transform="rotate(-0 40.302695 67.54077)">90</text>
     </g>
    </g>
    <g id="ytick_7">
     <g id="line2d_23">
      <path d="M 43.802695 27.432 
L 400.922695 27.432 
" clip-path="url(#pfee70ae09b)" style="fill: none; stroke: #e1e0d9; stroke-width: 0.7; stroke-linecap: square"/>
     </g>
     <g id="line2d_24"/>
     <g id="text_13">
      <text style="font-size: 10.5px; font-family: 'DejaVu Sans', 'Segoe UI', 'Arial', sans-serif; text-anchor: end; fill: #898781" x="40.302695" y="31.42077" transform="rotate(-0 40.302695 31.42077)">100</text>
     </g>
    </g>
    <g id="text_14">
     <text style="font-size: 10.5px; font-family: 'DejaVu Sans', 'Segoe UI', 'Arial', sans-serif; text-anchor: middle; fill: #52514e" x="13.738359" y="124.956" transform="rotate(-90 13.738359 124.956)">Malware recall  (%)  →  better</text>
    </g>
   </g>
   <g id="patch_4">
    <path d="M 43.802695 244.152 
L 43.802695 5.76 
" style="fill: none; stroke: #c3c2b7; stroke-width: 0.8; stroke-linejoin: miter; stroke-linecap: square"/>
   </g>
   <g id="patch_5">
    <path d="M 43.802695 244.152 
L 400.922695 244.152 
" style="fill: none; stroke: #c3c2b7; stroke-width: 0.8; stroke-linejoin: miter; stroke-linecap: square"/>
   </g>
   <g id="text_15">
    <text style="font-weight: 700; font-size: 9.5px; font-family: 'DejaVu Sans', 'Segoe UI', 'Arial', sans-serif; fill: #0b0b0b" transform="translate(78.597589 31.650088)">Q-Trace</text>
    <text style="font-weight: 700; font-size: 9.5px; font-family: 'DejaVu Sans', 'Segoe UI', 'Arial', sans-serif; fill: #0b0b0b" transform="translate(78.597589 43.052685)">97% recall · 0.0% FP</text>
   </g>
   <g id="text_16">
    <text style="font-weight: 700; font-size: 9.5px; font-family: 'DejaVu Sans', 'Segoe UI', 'Arial', sans-serif; fill: #0b0b0b" transform="translate(197.320993 144.550199)">Semgrep</text>
    <text style="font-weight: 700; font-size: 9.5px; font-family: 'DejaVu Sans', 'Segoe UI', 'Arial', sans-serif; fill: #0b0b0b" transform="translate(197.320993 155.952796)">66% recall · 3.1% FP</text>
   </g>
   <g id="text_17">
    <text style="font-weight: 700; font-size: 9.5px; font-family: 'DejaVu Sans', 'Segoe UI', 'Arial', sans-serif; fill: #0b0b0b" transform="translate(316.044397 205.071259)">Bandit</text>
    <text style="font-weight: 700; font-size: 9.5px; font-family: 'DejaVu Sans', 'Segoe UI', 'Arial', sans-serif; fill: #0b0b0b" transform="translate(316.044397 216.473857)">52% recall · 6.2% FP</text>
   </g>
   <g id="text_18">
    <text style="font-style: italic; font-size: 8.5px; font-family: 'DejaVu Sans', 'Segoe UI', 'Arial', sans-serif; text-anchor: start; fill: #0ca30c" x="68.497163" y="75.428672" transform="rotate(-0 68.497163 75.428672)">ideal corner</text>
   </g>
   <g id="PathCollection_1">
    <defs>
     <path id="mb8702657e0" d="M 0 8.944272 
C 2.372049 8.944272 4.647264 8.001847 6.324555 6.324555 
C 8.001847 4.647264 8.944272 2.372049 8.944272 0 
C 8.944272 -2.372049 8.001847 -4.647264 6.324555 -6.324555 
C 4.647264 -8.001847 2.372049 -8.944272 0 -8.944272 
C -2.372049 -8.944272 -4.647264 -8.001847 -6.324555 -6.324555 
C -8.001847 -4.647264 -8.944272 -2.372049 -8.944272 0 
C -8.944272 2.372049 -8.001847 4.647264 -6.324555 6.324555 
C -4.647264 8.001847 -2.372049 8.944272 0 8.944272 
z
" style="stroke: #fcfcfb; stroke-width: 2"/>
    </defs>
    <g clip-path="url(#pfee70ae09b)">
     <use xlink:href="#mb8702657e0" x="66.597589" y="39.083613" style="fill: #2a78d6; stroke: #fcfcfb; stroke-width: 2"/>
    </g>
   </g>
   <g id="PathCollection_2">
    <defs>
     <path id="m803667d4ae" d="M 0 8.944272 
C 2.372049 8.944272 4.647264 8.001847 6.324555 6.324555 
C 8.001847 4.647264 8.944272 2.372049 8.944272 0 
C 8.944272 -2.372049 8.001847 -4.647264 6.324555 -6.324555 
C 4.647264 -8.001847 2.372049 -8.944272 0 -8.944272 
C -2.372049 -8.944272 -4.647264 -8.001847 -6.324555 -6.324555 
C -8.001847 -4.647264 -8.944272 -2.372049 -8.944272 0 
C -8.944272 2.372049 -8.001847 4.647264 -6.324555 6.324555 
C -4.647264 8.001847 -2.372049 8.944272 0 8.944272 
z
" style="stroke: #fcfcfb; stroke-width: 2"/>
    </defs>
    <g clip-path="url(#pfee70ae09b)">
     <use xlink:href="#m803667d4ae" x="185.320993" y="151.983724" style="fill: #4a3aa7; stroke: #fcfcfb; stroke-width: 2"/>
    </g>
   </g>
   <g id="PathCollection_3">
    <defs>
     <path id="me8a42abae9" d="M 0 8.944272 
C 2.372049 8.944272 4.647264 8.001847 6.324555 6.324555 
C 8.001847 4.647264 8.944272 2.372049 8.944272 0 
C 8.944272 -2.372049 8.001847 -4.647264 6.324555 -6.324555 
C 4.647264 -8.001847 2.372049 -8.944272 0 -8.944272 
C -2.372049 -8.944272 -4.647264 -8.001847 -6.324555 -6.324555 
C -8.001847 -4.647264 -8.944272 -2.372049 -8.944272 0 
C -8.944272 2.372049 -8.001847 4.647264 -6.324555 6.324555 
C -4.647264 8.001847 -2.372049 8.944272 0 8.944272 
z
" style="stroke: #fcfcfb; stroke-width: 2"/>
    </defs>
    <g clip-path="url(#pfee70ae09b)">
     <use xlink:href="#me8a42abae9" x="304.044397" y="201.804414" style="fill: #eb6834; stroke: #fcfcfb; stroke-width: 2"/>
    </g>
   </g>
  </g>
 </g>
 <defs>
  <clipPath id="pfee70ae09b">
   <rect x="43.802695" y="5.76" width="357.12" height="238.392"/>
  </clipPath>
 </defs>
</svg>
